<svg width="32" height="32" viewBox="0 0 32 32" fill="none" xmlns="http://www.w3.org/2000/svg">
<path d="M12.7907 14.628C12.068 14.628 11.4987 15.2613 11.4987 16.0347C11.4987 16.8053 12.0813 17.4413 12.7907 17.4413C13.512 17.4413 14.0813 16.8053 14.0813 16.0347C14.096 15.26 13.512 14.628 12.7907 14.628ZM17.4147 14.628C16.692 14.628 16.1227 15.2613 16.1227 16.0347C16.1227 16.8053 16.7053 17.4413 17.4147 17.4413C18.136 17.4413 18.7053 16.8053 18.7053 16.0347C18.704 15.26 18.136 14.628 17.4147 14.628Z" fill="white"/>
<path d="M23.5707 4H6.596C5.16533 4 4 5.16533 4 6.60933V23.7347C4 25.1787 5.16533 26.344 6.596 26.344H20.96L20.2867 23.9987L21.9093 25.5067L23.4413 26.9253L26.1667 29.3333V6.60933C26.1667 5.16533 25.0013 4 23.5707 4ZM18.68 20.5427C18.68 20.5427 18.224 19.9987 17.8453 19.5147C19.504 19.0453 20.1373 18.008 20.1373 18.008C19.6173 18.3493 19.124 18.592 18.68 18.7573C18.0467 19.0213 17.44 19.1987 16.844 19.3013C15.628 19.528 14.5133 19.4653 13.5627 19.288C12.8413 19.148 12.2213 18.9453 11.7013 18.7413C11.4107 18.628 11.092 18.4907 10.7773 18.3133C10.7387 18.2853 10.7013 18.2747 10.664 18.2493C10.6373 18.236 10.6253 18.224 10.612 18.2093C10.384 18.084 10.2573 17.996 10.2573 17.996C10.2573 17.996 10.8653 19.0093 12.4747 19.4907C12.0947 19.9707 11.6253 20.5427 11.6253 20.5427C8.82667 20.4533 7.764 18.6173 7.764 18.6173C7.764 14.5387 9.588 11.2333 9.588 11.2333C11.412 9.864 13.1467 9.90267 13.1467 9.90267L13.2733 10.0547C10.9933 10.7147 9.94133 11.7147 9.94133 11.7147C9.94133 11.7147 10.2213 11.5627 10.6893 11.348C12.044 10.7533 13.12 10.588 13.564 10.5493C13.64 10.5373 13.704 10.524 13.78 10.524C14.5533 10.4227 15.4267 10.3973 16.3373 10.4987C17.5413 10.6387 18.8347 10.9933 20.1507 11.7147C20.1507 11.7147 19.1493 10.7653 16.996 10.1067L17.1733 9.904C17.1733 9.904 18.9093 9.86533 20.732 11.2347C20.732 11.2347 22.556 14.54 22.556 18.6187C22.556 18.6187 21.48 20.4533 18.68 20.5427Z" fill="white"/>
</svg>
