<svg width="32" height="32" viewBox="0 0 32 32" fill="none" xmlns="http://www.w3.org/2000/svg">
<path fill-rule="evenodd" clip-rule="evenodd" d="M16.0348 2.66675C8.68942 2.66675 2.73608 8.62008 2.73608 15.9654C2.73608 21.8401 6.54542 26.8254 11.8308 28.5854C12.4961 28.7054 12.7361 28.2961 12.7361 27.9441C12.7361 27.6281 12.7254 26.7907 12.7214 25.6827C9.02142 26.4854 8.24008 23.8987 8.24008 23.8987C7.63742 22.3627 6.76408 21.9534 6.76408 21.9534C5.55742 21.1281 6.85608 21.1467 6.85608 21.1467C8.19208 21.2401 8.89208 22.5174 8.89208 22.5174C10.0788 24.5494 12.0068 23.9627 12.7614 23.6227C12.8828 22.7627 13.2294 22.1761 13.6081 21.8441C10.6561 21.5094 7.55208 20.3681 7.55208 15.2707C7.55208 13.8214 8.07075 12.6321 8.91742 11.7041C8.78275 11.3667 8.32275 10.0134 9.04942 8.18408C9.04942 8.18408 10.1654 7.82541 12.7054 9.54541C13.7694 9.25075 14.9041 9.10275 16.0334 9.09741C17.1654 9.10275 18.3014 9.25075 19.3614 9.54541C21.9028 7.82408 23.0174 8.18408 23.0174 8.18408C23.7441 10.0134 23.2881 11.3667 23.1494 11.7041C24.0028 12.6321 24.5148 13.8201 24.5148 15.2707C24.5148 20.3814 21.4081 21.5041 18.4454 21.8334C18.9188 22.2441 19.3454 23.0547 19.3454 24.2947C19.3454 26.0734 19.3294 27.5081 19.3294 27.9441C19.3294 28.3001 19.5668 28.7134 20.2454 28.5827C25.5281 26.8201 29.3334 21.8387 29.3334 15.9654C29.3334 8.62008 23.3801 2.66675 16.0348 2.66675Z" fill="white"/>
</svg>
