<svg width="38" height="42" viewBox="0 0 38 42" fill="none" xmlns="http://www.w3.org/2000/svg">
<path d="M32.1654 14.0498C31.8973 10.3135 28.3681 9.12479 23.8694 8.85111L24.0498 3.65826L20.5549 3.72356L20.3795 8.77963C19.4607 8.79662 18.5211 8.8305 17.5873 8.86465L17.7647 3.77501L14.2719 3.83981L14.0904 9.03126C13.3334 9.05932 12.5897 9.08597 11.8652 9.09973L11.8654 9.0835L7.0453 9.17135L6.92894 12.5473C6.92894 12.5473 9.51125 12.4551 9.46691 12.4986C10.8823 12.4726 11.3173 13.2075 11.4293 13.8464L11.224 19.7622C11.3216 19.7608 11.4489 19.7621 11.5927 19.7775C11.4761 19.7798 11.3519 19.7815 11.2234 19.785L10.9346 28.0725C10.8587 28.4765 10.5745 29.1241 9.58534 29.1438C9.62899 29.1788 7.045 29.1905 7.045 29.1905L6.21929 32.9784L10.7674 32.8938C11.6138 32.8792 12.4461 32.8767 13.2637 32.866L13.0828 38.118L16.5738 38.0536L16.7541 32.857C17.7121 32.8572 18.6393 32.8469 19.5452 32.8294L19.364 38.0019L22.859 37.9366L23.042 32.6938C28.9283 32.2799 33.087 30.865 33.7709 25.8649C34.3226 21.839 32.2951 20.0849 28.9852 19.4224C31.044 18.4515 32.3667 16.7837 32.1654 14.0498ZM26.8857 25.3706C26.7512 29.2955 19.3364 28.9871 16.9678 29.0331L17.2104 22.0743C19.5796 22.031 27.0281 21.2769 26.8857 25.3706ZM25.6013 15.583C25.4762 19.1538 19.2939 18.8522 17.321 18.8889L17.5406 12.5778C19.5135 12.5411 25.7301 11.8589 25.6013 15.583Z" fill="#F1F1F1"/>
</svg>
