<?xml version="1.0" encoding="UTF-8" standalone="no"?>
<!DOCTYPE svg PUBLIC "-//W3C//DTD SVG 1.1//EN" "http://www.w3.org/Graphics/SVG/1.1/DTD/svg11.dtd">
<svg width="100%" height="100%" viewBox="0 0 2014 203" version="1.1" xmlns="http://www.w3.org/2000/svg" xmlns:xlink="http://www.w3.org/1999/xlink" xml:space="preserve" xmlns:serif="http://www.serif.com/" style="fill-rule:evenodd;clip-rule:evenodd;stroke-linejoin:round;stroke-miterlimit:2;">
    <g transform="matrix(1,0,0,1,-1887.32,-1605.93)">
        <g transform="matrix(2.74088,0,0,2.74088,1551.3,1195.88)">
            <g transform="matrix(1,0,0,1,-163.798,69.5102)">
                <path d="M333.408,115.328C333.153,114.726 332.564,114.334 331.91,114.334C331.257,114.334 330.667,114.725 330.413,115.328L318.484,143.556C318.467,143.596 318.451,143.636 318.438,143.677C318.411,143.757 318.356,143.879 318.301,143.997C318.269,144.035 318.239,144.074 318.211,144.115L317.83,144.496C317.72,144.607 317.627,144.731 317.553,144.865C317.45,144.908 317.351,144.96 317.257,145.022C317.091,145.133 316.925,145.265 316.77,145.392C316.729,145.407 316.69,145.422 316.651,145.439C316.467,145.474 316.309,145.521 316.176,145.57C316.027,145.575 315.887,145.6 315.743,145.648C315.694,145.66 315.54,145.66 315.428,145.66C315.307,145.66 315.081,145.66 315.033,145.652C314.869,145.598 314.699,145.569 314.526,145.568C314.44,145.537 314.343,145.505 314.238,145.475C314.144,145.428 314.04,145.388 313.925,145.357C313.865,145.317 313.794,145.261 313.758,145.226C313.615,145.083 313.447,144.969 313.265,144.887C313.194,144.825 313.105,144.752 312.995,144.676C312.945,144.609 312.892,144.546 312.844,144.495C312.815,144.463 312.793,144.429 312.768,144.397C312.751,144.374 312.734,144.352 312.717,144.329C312.661,144.207 312.59,144.091 312.503,143.985C312.49,143.957 312.477,143.926 312.463,143.896C312.407,143.772 312.333,143.612 312.234,143.442L289.891,90.488C289.548,89.65 289.562,88.687 289.927,87.849C290.271,87.059 290.897,86.458 291.693,86.156C291.721,86.145 291.749,86.134 291.777,86.122C292.559,85.774 293.481,85.768 294.303,86.105C295.127,86.442 295.753,87.07 296.084,87.91L301.925,101.709C302.276,102.536 303.23,102.922 304.056,102.574C304.884,102.223 305.27,101.27 304.92,100.443L299.095,86.682C298.454,85.047 297.189,83.774 295.538,83.097C293.913,82.431 292.079,82.443 290.497,83.133C288.896,83.753 287.635,84.965 286.946,86.551C286.233,88.189 286.209,90.071 286.887,91.734L309.288,144.821C309.328,144.915 309.371,144.996 309.427,145.081C309.458,145.133 309.481,145.192 309.507,145.247C309.571,145.387 309.647,145.555 309.755,145.73C309.84,145.922 309.957,146.103 310.093,146.25C310.122,146.282 310.144,146.316 310.168,146.348C310.228,146.427 310.288,146.505 310.355,146.583C310.448,146.75 310.546,146.883 310.725,147.064C310.859,147.2 311.016,147.31 311.189,147.391C311.308,147.499 311.442,147.611 311.616,147.727C311.681,147.771 311.75,147.81 311.82,147.844C312.099,148.064 312.446,148.285 312.8,148.422C312.991,148.533 313.204,148.603 313.425,148.628L313.732,148.736C313.898,148.792 314.072,148.821 314.247,148.821L314.312,148.821C314.734,148.912 315.142,148.912 315.431,148.912C315.707,148.912 316.064,148.912 316.465,148.821L316.523,148.821C316.758,148.821 317.049,148.74 317.27,148.639C317.563,148.635 317.837,148.554 318.073,148.417C318.103,148.404 318.131,148.391 318.16,148.376C318.41,148.252 318.617,148.086 318.8,147.935C319.06,147.859 319.299,147.718 319.494,147.524C319.559,147.459 319.621,147.391 319.686,147.338C320.008,147.157 320.253,146.876 320.391,146.545C320.394,146.539 320.397,146.533 320.4,146.527L320.678,146.25C320.704,146.223 320.73,146.196 320.756,146.167C320.886,146.039 320.998,145.888 321.082,145.72C321.186,145.509 321.376,145.127 321.503,144.77L331.912,120.138L335.286,128.121C335.636,128.949 336.59,129.335 337.416,128.986C338.244,128.636 338.631,127.682 338.28,126.855L333.408,115.328ZM376.897,86.681C376.245,85.063 374.974,83.768 373.418,83.134C369.957,81.702 366.108,83.241 364.651,86.646L348.394,125.245L338.127,100.81C337.008,98.35 334.569,96.761 331.91,96.761C329.14,96.761 326.691,98.372 325.677,100.853L315.424,125.254L310.303,113.159C309.953,112.332 308.998,111.946 308.172,112.295C307.345,112.645 306.959,113.599 307.308,114.426L313.931,130.071C314.186,130.673 314.776,131.064 315.429,131.064L315.431,131.064C316.085,131.063 316.674,130.671 316.928,130.067L328.681,102.098C329.206,100.812 330.444,100.013 331.91,100.013C333.317,100.013 334.565,100.834 335.146,102.113L346.893,130.068C347.146,130.671 347.737,131.064 348.391,131.064L348.392,131.064C349.046,131.064 349.637,130.673 349.89,130.069L367.643,87.918C368.389,86.177 370.381,85.397 372.182,86.142C372.947,86.454 373.551,87.077 373.88,87.896C374.216,88.729 374.208,89.657 373.846,90.473L351.537,143.559C351.521,143.596 351.507,143.635 351.494,143.674C351.468,143.755 351.419,143.852 351.389,143.9L351.34,143.95C351.234,144.055 351.145,144.174 351.072,144.304C351.02,144.368 350.951,144.43 350.886,144.494C350.786,144.593 350.7,144.705 350.631,144.824C350.598,144.848 350.563,144.874 350.529,144.9C350.454,144.935 350.381,144.976 350.311,145.022C350.164,145.119 350.033,145.229 349.902,145.342C349.771,145.374 349.645,145.422 349.526,145.482C349.421,145.508 349.318,145.539 349.218,145.57C349.075,145.577 348.941,145.601 348.802,145.648C348.743,145.66 348.548,145.66 348.391,145.66C348.279,145.66 348.125,145.66 348.087,145.652C347.924,145.598 347.753,145.569 347.58,145.568C347.493,145.537 347.396,145.504 347.29,145.474C347.185,145.422 347.067,145.379 346.935,145.347C346.894,145.309 346.844,145.26 346.809,145.225C346.65,145.065 346.46,144.942 346.254,144.861C346.253,144.861 346.252,144.86 346.251,144.859C346.206,144.825 346.16,144.788 346.11,144.751C346.024,144.608 345.937,144.491 345.867,144.398L345.84,144.375C345.741,144.177 345.604,144.004 345.441,143.864C345.438,143.855 345.436,143.846 345.432,143.837L345.381,143.678C345.367,143.637 345.353,143.596 345.335,143.557L341.815,135.227C341.465,134.399 340.51,134.013 339.684,134.363C338.857,134.712 338.47,135.666 338.82,136.493L342.312,144.757L342.331,144.815C342.426,145.118 342.562,145.55 342.858,145.939C342.975,146.115 343.124,146.273 343.306,146.4C343.442,146.669 343.538,146.827 343.78,147.07C343.903,147.192 343.981,147.258 344.137,147.336C344.173,147.361 344.21,147.392 344.251,147.423C344.373,147.518 344.51,147.623 344.669,147.729C344.719,147.762 344.77,147.792 344.822,147.818C345.076,148.038 345.428,148.288 345.881,148.44C346.065,148.54 346.267,148.605 346.476,148.628L346.783,148.736C346.949,148.792 347.123,148.821 347.298,148.821L347.356,148.821C347.758,148.912 348.115,148.912 348.39,148.912C348.747,148.912 349.115,148.912 349.519,148.821C349.681,148.817 349.843,148.789 349.998,148.736C350.111,148.699 350.22,148.658 350.317,148.635C350.562,148.619 350.793,148.55 350.996,148.438C351.453,148.283 351.763,148.033 351.97,147.854C352.149,147.773 352.314,147.661 352.455,147.525C352.495,147.485 352.611,147.404 352.67,147.374C353.027,147.195 353.298,146.896 353.446,146.54C353.451,146.529 353.457,146.519 353.462,146.508C353.569,146.39 353.679,146.257 353.779,146.109C354.209,145.652 354.461,145.035 354.555,144.772L376.83,91.764C377.536,90.178 377.559,88.326 376.897,86.681L376.897,86.681Z" style="fill:rgb(139,203,255);fill-rule:nonzero;"/>
            </g>
            <g transform="matrix(1,0,0,1,-163.798,69.5102)">
                <path d="M432.425,133.594C431.527,133.594 430.799,134.322 430.799,135.22L430.799,142.277C430.799,144.174 429.273,145.659 427.326,145.659C425.398,145.659 423.944,144.205 423.944,142.277L423.944,120.422C423.944,119.524 423.215,118.796 422.318,118.796L398.734,118.796C397.836,118.796 397.108,119.524 397.108,120.422L397.108,142.276C397.108,144.173 395.582,145.658 393.634,145.658C391.706,145.658 390.252,144.205 390.252,142.276L390.252,88.551C390.252,86.623 391.707,85.169 393.634,85.169C395.582,85.169 397.108,86.655 397.108,88.551L397.108,110.405C397.108,111.303 397.836,112.032 398.734,112.032L407.105,112.032C408.002,112.032 408.731,111.303 408.731,110.405C408.731,109.508 408.002,108.779 407.105,108.779L400.36,108.779L400.36,88.551C400.36,84.831 397.405,81.917 393.634,81.917C389.914,81.917 387,84.831 387,88.551L387,142.276C387,145.996 389.914,148.91 393.634,148.91C397.406,148.91 400.36,145.996 400.36,142.276L400.36,122.048L420.692,122.048L420.692,142.276C420.692,145.996 423.606,148.91 427.326,148.91C431.097,148.91 434.051,145.996 434.051,142.276L434.051,135.219C434.051,134.321 433.323,133.594 432.425,133.594L432.425,133.594ZM427.326,81.917C423.606,81.917 420.692,84.831 420.692,88.551L420.692,108.779L412.784,108.779C411.887,108.779 411.158,109.508 411.158,110.405C411.158,111.303 411.887,112.032 412.784,112.032L422.318,112.032C423.215,112.032 423.944,111.303 423.944,110.405L423.944,88.551C423.944,86.623 425.398,85.169 427.326,85.169C429.273,85.169 430.799,86.655 430.799,88.551L430.799,127.134C430.799,128.032 431.527,128.76 432.425,128.76C433.322,128.76 434.051,128.032 434.051,127.134L434.051,88.551C434.051,84.831 431.097,81.917 427.326,81.917L427.326,81.917Z" style="fill:rgb(139,203,255);fill-rule:nonzero;"/>
            </g>
            <g transform="matrix(1,0,0,1,-163.798,69.5102)">
                <path d="M496.985,139.884L485.438,109.11C485.122,108.269 484.186,107.842 483.344,108.158C482.503,108.474 482.077,109.41 482.393,110.251L493.926,140.986C494.564,142.835 493.665,144.814 491.855,145.502C491.674,145.574 491.269,145.659 490.727,145.659C489.324,145.659 488.072,144.809 487.605,143.525L483.143,131.686C482.905,131.053 482.299,130.634 481.621,130.634L459.494,130.634C458.817,130.634 458.211,131.053 457.972,131.686L453.526,143.482C452.985,144.805 451.717,145.659 450.296,145.659C449.85,145.659 449.474,145.6 449.143,145.492C447.36,144.815 446.461,142.835 447.084,141.026L467.191,87.438C467.732,86.113 469.103,85.196 470.438,85.259C470.487,85.259 470.535,85.261 470.583,85.259C471.996,85.185 473.267,86.053 473.816,87.392L479.928,103.68C480.243,104.521 481.18,104.947 482.021,104.631C482.862,104.316 483.288,103.379 482.973,102.539L476.843,86.207C475.776,83.599 473.244,81.903 470.513,82.008C467.842,81.936 465.232,83.637 464.163,86.251L444.025,139.926C442.811,143.447 444.553,147.227 448.054,148.554C448.784,148.797 449.497,148.91 450.298,148.91C453.045,148.91 455.495,147.263 456.554,144.67L460.619,133.885L480.497,133.885L484.556,144.652C485.482,147.199 487.962,148.909 490.727,148.909C491.235,148.909 492.213,148.858 493.035,148.531C496.472,147.227 498.213,143.447 496.985,139.884L496.985,139.884ZM465.605,115.693C464.764,115.375 463.826,115.799 463.51,116.641L461.614,121.67C461.427,122.169 461.496,122.729 461.799,123.168C462.102,123.607 462.602,123.869 463.136,123.869L477.888,123.869C478.422,123.869 478.921,123.607 479.225,123.168C479.529,122.729 479.598,122.169 479.41,121.67L472.034,102.092C471.796,101.459 471.189,101.039 470.512,101.039C469.835,101.039 469.229,101.459 468.99,102.092L465.888,110.329C465.571,111.169 465.996,112.108 466.836,112.424C467.677,112.738 468.615,112.315 468.932,111.475L470.513,107.278L475.539,120.617L465.487,120.617L466.554,117.788C466.87,116.947 466.445,116.009 465.605,115.693L465.605,115.693Z" style="fill:rgb(139,203,255);fill-rule:nonzero;"/>
            </g>
            <g transform="matrix(1,0,0,1,-163.798,69.5102)">
                <path d="M552.516,81.917L522.315,81.917C521.418,81.917 520.689,82.646 520.689,83.543C520.689,84.441 521.418,85.169 522.315,85.169L552.516,85.169C554.382,85.169 555.899,86.686 555.899,88.551C555.899,90.401 554.318,92.024 552.516,92.024L538.037,92.024C537.14,92.024 536.411,92.752 536.411,93.65L536.411,105.818C536.411,106.715 537.14,107.444 538.037,107.444C538.935,107.444 539.663,106.715 539.663,105.818L539.663,95.277L552.516,95.277C556.112,95.277 559.151,92.197 559.151,88.552C559.151,84.893 556.175,81.917 552.516,81.917ZM538.037,112.888C537.14,112.888 536.411,113.617 536.411,114.515L536.411,142.276C536.411,144.205 534.958,145.658 533.03,145.658C531.165,145.658 529.648,144.141 529.648,142.276L529.648,93.651C529.648,92.753 528.919,92.025 528.022,92.025L513.634,92.025C511.769,92.025 510.252,90.467 510.252,88.552C510.252,86.624 511.706,85.17 513.634,85.17C514.532,85.17 515.26,84.442 515.26,83.544C515.26,82.646 514.532,81.918 513.634,81.918C509.914,81.918 507,84.832 507,88.552C507,92.26 509.976,95.277 513.634,95.277L526.396,95.277L526.396,142.276C526.396,145.935 529.371,148.91 533.03,148.91C536.75,148.91 539.663,145.996 539.663,142.276L539.663,114.515C539.663,113.616 538.936,112.888 538.037,112.888L538.037,112.888Z" style="fill:rgb(139,203,255);fill-rule:nonzero;"/>
            </g>
            <g transform="matrix(1,0,0,1,-163.798,69.5102)">
                <path d="M611.47,126.796C610.572,126.796 609.844,127.525 609.844,128.422L609.844,142.276C609.844,144.141 608.285,145.658 606.37,145.658C604.442,145.658 602.988,144.205 602.988,142.276L602.988,108.311C602.988,107.414 602.26,106.685 601.362,106.685C600.465,106.685 599.736,107.414 599.736,108.311L599.736,142.276C599.736,145.996 602.65,148.91 606.37,148.91C610.079,148.91 613.096,145.935 613.096,142.276L613.096,128.422C613.096,127.525 612.368,126.796 611.47,126.796L611.47,126.796ZM606.37,81.917C602.65,81.917 599.736,84.831 599.736,88.551L599.736,101.608C599.736,102.505 600.465,103.234 601.362,103.234C602.26,103.234 602.988,102.505 602.988,101.608L602.988,88.551C602.988,86.623 604.443,85.169 606.37,85.169C608.286,85.169 609.844,86.686 609.844,88.551L609.844,120.788C609.844,121.685 610.572,122.414 611.47,122.414C612.367,122.414 613.096,121.685 613.096,120.788L613.096,88.551C613.096,84.893 610.079,81.917 606.37,81.917L606.37,81.917Z" style="fill:rgb(139,203,255);fill-rule:nonzero;"/>
            </g>
            <g transform="matrix(1,0,0,1,-163.798,69.5102)">
                <path d="M635.987,115.883C639.217,117.413 643.187,118.615 648.125,119.56C648.225,119.58 648.328,119.589 648.43,119.589L648.46,119.589C653.473,120.537 657.744,121.997 660.185,123.595C661.221,124.287 661.932,124.991 662.425,125.811C662.858,126.536 663.013,127.079 663.013,127.89C663.013,129.788 661.919,131.553 659.762,133.134C657.115,135.076 653.317,136.189 649.342,136.189C648.444,136.189 647.716,136.917 647.716,137.815C647.716,138.713 648.444,139.441 649.342,139.441C653.995,139.441 658.494,138.099 661.686,135.757C665.47,132.982 666.266,129.947 666.266,127.89C666.266,126.489 665.951,125.367 665.214,124.14C664.476,122.908 663.422,121.846 661.979,120.884C659.115,119.007 654.474,117.403 648.911,116.366C648.813,116.348 648.713,116.338 648.613,116.338L648.586,116.338C643.994,115.449 640.327,114.339 637.381,112.944C633.882,111.286 631.262,109.099 629.596,106.449C628.388,104.515 627.749,102.231 627.749,99.844C627.749,95.338 630.164,90.969 634.361,87.867C638.386,84.953 643.642,83.348 649.158,83.348C657.275,83.348 663.413,87.322 667.896,90.224L668.081,90.342C668.747,90.805 669.222,91.528 669.385,92.325C669.547,93.118 669.392,93.906 668.905,94.61C668.479,95.291 667.811,95.76 667.024,95.93C666.227,96.101 665.409,95.943 664.721,95.484C659.713,92.147 655.086,89.383 649.158,89.383C644.992,89.383 640.922,90.628 637.993,92.799C634.588,95.321 633.874,98.022 633.874,99.843C633.874,101.241 634.138,102.261 634.759,103.253C635.363,104.22 636.343,105.177 637.671,106.096C640.27,107.896 644.536,109.411 649.682,110.364C649.78,110.382 649.879,110.391 649.978,110.391L650.16,110.391C651.058,110.391 651.786,109.662 651.786,108.765C651.786,107.867 651.058,107.139 650.16,107.139L650.129,107.139C645.557,106.279 641.696,104.927 639.522,103.422C638.26,102.549 637.724,101.861 637.516,101.53C637.268,101.134 637.126,100.731 637.126,99.843C637.126,98.28 638.069,96.79 639.928,95.413C642.311,93.647 645.674,92.635 649.159,92.635C654.177,92.635 658.358,95.151 662.917,98.19C664.343,99.14 666.044,99.464 667.71,99.109C669.364,98.752 670.769,97.767 671.62,96.4C672.576,95.026 672.914,93.348 672.573,91.674C672.24,90.042 671.305,88.621 669.894,87.642L669.665,87.493C664.842,84.37 658.239,80.094 649.16,80.094C642.965,80.094 637.032,81.918 632.441,85.239C627.392,88.97 624.497,94.293 624.497,99.842C624.497,102.839 625.306,105.719 626.84,108.174C628.842,111.362 631.92,113.955 635.987,115.883L635.987,115.883ZM673.213,119.29C671.176,116.015 667.979,113.345 663.424,111.123C661.515,110.216 659.409,109.431 656.984,108.726C656.121,108.473 655.219,108.97 654.969,109.831C654.717,110.694 655.212,111.597 656.074,111.847C658.33,112.505 660.278,113.227 662.013,114.053C665.987,115.992 668.748,118.267 670.453,121.01C671.703,123.011 672.392,125.453 672.392,127.889C672.392,132.746 669.783,137.409 665.225,140.692C660.944,143.836 655.304,145.567 649.356,145.567C639.966,145.48 632.036,140.757 627.06,136.829C625.775,135.778 625.559,133.765 626.56,132.47C627.617,131.179 629.614,130.991 630.919,132.061C632.297,133.189 633.901,134.295 635.558,135.258C637.629,136.465 639.736,137.435 641.818,138.139C642.668,138.429 643.592,137.97 643.879,137.12C644.166,136.269 643.711,135.346 642.859,135.059C640.983,134.425 639.078,133.547 637.193,132.448C635.683,131.569 634.225,130.565 632.978,129.545C630.262,127.324 626.253,127.71 624.013,130.447C621.901,133.181 622.344,137.173 625.022,139.364C630.418,143.625 639.015,148.724 649.34,148.82C655.991,148.82 662.314,146.865 667.136,143.323C672.542,139.43 675.643,133.805 675.643,127.89C675.643,124.852 674.78,121.797 673.213,119.29L673.213,119.29Z" style="fill:rgb(139,203,255);fill-rule:nonzero;"/>
            </g>
            <g transform="matrix(1,0,0,1,-163.798,69.5102)">
                <path d="M719.532,114.511C719.565,108.136 721.574,101.995 725.341,96.752C728.27,92.678 732.186,89.295 736.668,86.968C741.18,84.625 746.251,83.373 751.325,83.348C758.746,83.348 765.675,85.685 771.319,90.073C772.812,91.319 773.097,93.53 771.975,95.126C770.745,96.625 768.427,96.957 767.015,95.852C762.717,92.336 757.292,90.477 751.326,90.477C750.06,90.477 748.785,90.575 747.533,90.768C746.646,90.904 746.037,91.734 746.173,92.622C746.31,93.509 747.134,94.116 748.028,93.982C749.116,93.814 750.225,93.729 751.325,93.729C756.531,93.729 761.244,95.334 764.983,98.391C767.83,100.619 772.208,100.039 774.539,97.124C774.556,97.103 774.573,97.081 774.589,97.059C776.733,94.082 776.211,89.916 773.358,87.54C767.095,82.671 759.476,80.096 751.317,80.096C745.721,80.124 740.138,81.502 735.17,84.081C730.238,86.642 725.926,90.368 722.701,94.855C718.537,100.648 716.317,107.44 716.281,114.511C716.326,123.415 719.831,131.87 726.149,138.317C726.467,138.641 726.888,138.804 727.31,138.804C727.72,138.804 728.132,138.65 728.448,138.34C729.089,137.712 729.1,136.682 728.471,136.04C722.748,130.201 719.573,122.55 719.532,114.511L719.532,114.511ZM774.589,131.947C774.567,131.916 774.544,131.886 774.519,131.856C772.203,129.076 767.851,128.494 764.97,130.626C761.111,133.712 756.521,135.278 751.326,135.278C745.686,135.278 740.26,133.105 736.072,129.186C732.159,125.359 729.914,120.007 729.914,114.503C729.914,109.018 732.052,103.931 736.046,99.846C737.703,98.295 739.577,97.002 741.616,96.003C742.423,95.608 742.756,94.633 742.361,93.827C741.966,93.021 740.991,92.688 740.185,93.082C737.858,94.223 735.717,95.7 733.773,97.521C729.121,102.278 726.662,108.149 726.662,114.503C726.662,120.877 729.263,127.076 733.824,131.534C738.643,136.045 744.859,138.53 751.326,138.53C757.279,138.53 762.553,136.725 766.953,133.203C768.408,132.128 770.745,132.453 771.985,133.895C773.106,135.502 772.828,137.739 771.363,138.898C765.676,143.321 758.748,145.658 751.326,145.658C746.031,145.658 740.772,144.325 736.116,141.803C735.327,141.375 734.34,141.669 733.912,142.458C733.485,143.248 733.777,144.235 734.567,144.663C739.697,147.442 745.493,148.911 751.327,148.911C759.479,148.911 767.097,146.336 773.371,141.457C776.202,139.213 776.75,134.947 774.589,131.947L774.589,131.947Z" style="fill:rgb(139,203,255);fill-rule:nonzero;"/>
            </g>
            <g transform="matrix(1,0,0,1,-163.798,69.5102)">
                <path d="M830.921,133.594C830.023,133.594 829.295,134.322 829.295,135.22L829.295,142.277C829.295,144.174 827.769,145.659 825.822,145.659C823.894,145.659 822.44,144.205 822.44,142.277L822.44,120.422C822.44,119.524 821.711,118.796 820.814,118.796L797.23,118.796C796.332,118.796 795.604,119.524 795.604,120.422L795.604,142.276C795.604,144.173 794.078,145.658 792.13,145.658C790.202,145.658 788.748,144.205 788.748,142.276L788.748,88.551C788.748,86.623 790.203,85.169 792.13,85.169C794.078,85.169 795.604,86.655 795.604,88.551L795.604,110.405C795.604,111.303 796.332,112.032 797.23,112.032L805.601,112.032C806.498,112.032 807.227,111.303 807.227,110.405C807.227,109.508 806.498,108.779 805.601,108.779L798.856,108.779L798.856,88.551C798.856,84.831 795.901,81.917 792.13,81.917C788.41,81.917 785.496,84.831 785.496,88.551L785.496,142.276C785.496,145.996 788.41,148.91 792.13,148.91C795.902,148.91 798.856,145.996 798.856,142.276L798.856,122.048L819.188,122.048L819.188,142.276C819.188,145.996 822.102,148.91 825.822,148.91C829.593,148.91 832.547,145.996 832.547,142.276L832.547,135.219C832.547,134.321 831.819,133.594 830.921,133.594L830.921,133.594ZM825.822,81.917C822.102,81.917 819.188,84.831 819.188,88.551L819.188,108.779L811.28,108.779C810.383,108.779 809.654,109.508 809.654,110.405C809.654,111.303 810.383,112.032 811.28,112.032L820.814,112.032C821.711,112.032 822.44,111.303 822.44,110.405L822.44,88.551C822.44,86.623 823.894,85.169 825.822,85.169C827.769,85.169 829.295,86.655 829.295,88.551L829.295,127.134C829.295,128.032 830.023,128.76 830.921,128.76C831.818,128.76 832.547,128.032 832.547,127.134L832.547,88.551C832.547,84.831 829.593,81.917 825.822,81.917L825.822,81.917Z" style="fill:rgb(139,203,255);fill-rule:nonzero;"/>
            </g>
            <g transform="matrix(1,0,0,1,-163.798,69.5102)">
                <path d="M853.87,126.796C852.972,126.796 852.244,127.525 852.244,128.422L852.244,142.276C852.244,144.141 850.685,145.658 848.77,145.658C846.842,145.658 845.388,144.205 845.388,142.276L845.388,108.311C845.388,107.414 844.66,106.685 843.762,106.685C842.865,106.685 842.136,107.414 842.136,108.311L842.136,142.276C842.136,145.996 845.05,148.91 848.77,148.91C852.479,148.91 855.496,145.935 855.496,142.276L855.496,128.422C855.496,127.525 854.768,126.796 853.87,126.796L853.87,126.796ZM848.77,81.917C845.05,81.917 842.136,84.831 842.136,88.551L842.136,101.608C842.136,102.505 842.865,103.234 843.762,103.234C844.66,103.234 845.388,102.505 845.388,101.608L845.388,88.551C845.388,86.623 846.843,85.169 848.77,85.169C850.686,85.169 852.244,86.686 852.244,88.551L852.244,120.788C852.244,121.685 852.972,122.414 853.87,122.414C854.767,122.414 855.496,121.685 855.496,120.788L855.496,88.551C855.496,84.893 852.479,81.917 848.77,81.917L848.77,81.917Z" style="fill:rgb(139,203,255);fill-rule:nonzero;"/>
            </g>
            <g transform="matrix(1,0,0,1,-163.798,69.5102)">
                <path d="M881.379,95.277C882.276,95.277 883.005,94.548 883.005,93.651C883.005,92.753 882.276,92.025 881.379,92.025L876.814,92.025C875.916,92.025 875.188,92.753 875.188,93.651L875.188,112.409C875.188,113.306 875.916,114.035 876.814,114.035L888.013,114.035C894.126,114.035 899,109.253 899.109,103.093C899.002,96.886 894.128,92.025 888.013,92.025C887.116,92.025 886.387,92.753 886.387,93.651C886.387,94.548 887.116,95.277 888.013,95.277C892.335,95.277 895.782,98.735 895.857,103.092C895.78,107.405 892.334,110.783 888.013,110.783L878.44,110.783L878.44,95.277L881.379,95.277ZM900.014,116.326C896.714,119.269 892.452,120.89 888.013,120.89L876.814,120.89C875.916,120.89 875.188,121.619 875.188,122.516L875.188,142.276C875.188,144.141 873.629,145.658 871.714,145.658C869.881,145.658 868.333,144.109 868.333,142.276L868.333,118.739C868.333,117.841 867.605,117.113 866.707,117.113C865.809,117.113 865.081,117.841 865.081,118.739L865.081,142.276C865.081,145.935 868.057,148.91 871.714,148.91C875.423,148.91 878.44,145.935 878.44,142.276L878.44,124.142L888.013,124.142C893.251,124.142 898.282,122.228 902.178,118.752C902.848,118.154 902.907,117.127 902.309,116.457C901.713,115.785 900.683,115.726 900.014,116.326L900.014,116.326ZM888.013,81.917L871.714,81.917C868.056,81.917 865.08,84.893 865.08,88.551L865.08,112.409C865.08,113.306 865.809,114.035 866.706,114.035C867.604,114.035 868.332,113.306 868.332,112.409L868.332,88.551C868.332,86.686 869.849,85.169 871.714,85.169L888.013,85.169C897.912,85.169 905.965,93.222 905.965,103.121C905.965,105.562 905.471,107.929 904.496,110.155C904.136,110.978 904.512,111.936 905.334,112.297C906.155,112.656 907.115,112.28 907.475,111.459C908.631,108.819 909.217,106.014 909.217,103.121C909.217,91.429 899.705,81.917 888.013,81.917L888.013,81.917Z" style="fill:rgb(139,203,255);fill-rule:nonzero;"/>
            </g>
            <g transform="matrix(1,0,0,1,-163.798,69.5102)">
                <path d="M932.147,115.883C935.377,117.413 939.347,118.615 944.285,119.56C944.385,119.58 944.488,119.589 944.59,119.589L944.62,119.589C949.633,120.537 953.904,121.997 956.345,123.595C957.381,124.287 958.092,124.991 958.585,125.811C959.018,126.536 959.173,127.079 959.173,127.89C959.173,129.788 958.079,131.553 955.922,133.134C953.275,135.076 949.477,136.189 945.502,136.189C944.604,136.189 943.876,136.917 943.876,137.815C943.876,138.713 944.604,139.441 945.502,139.441C950.155,139.441 954.654,138.099 957.846,135.757C961.63,132.982 962.426,129.947 962.426,127.89C962.426,126.489 962.111,125.367 961.374,124.14C960.636,122.908 959.582,121.846 958.139,120.884C955.275,119.007 950.634,117.403 945.071,116.366C944.973,116.348 944.873,116.338 944.773,116.338L944.746,116.338C940.154,115.449 936.487,114.339 933.541,112.944C930.042,111.286 927.422,109.099 925.756,106.449C924.548,104.515 923.909,102.231 923.909,99.844C923.909,95.338 926.324,90.969 930.521,87.867C934.546,84.953 939.802,83.348 945.318,83.348C953.435,83.348 959.573,87.322 964.056,90.224L964.241,90.342C964.907,90.805 965.382,91.528 965.545,92.325C965.707,93.118 965.552,93.906 965.065,94.61C964.639,95.291 963.971,95.76 963.184,95.93C962.387,96.101 961.569,95.943 960.881,95.484C955.873,92.147 951.246,89.383 945.318,89.383C941.152,89.383 937.082,90.628 934.153,92.799C930.748,95.321 930.034,98.022 930.034,99.843C930.034,101.241 930.298,102.261 930.919,103.253C931.523,104.22 932.503,105.177 933.831,106.096C936.43,107.896 940.696,109.411 945.842,110.364C945.94,110.382 946.039,110.391 946.138,110.391L946.32,110.391C947.218,110.391 947.946,109.662 947.946,108.765C947.946,107.867 947.218,107.139 946.32,107.139L946.289,107.139C941.717,106.279 937.856,104.927 935.682,103.422C934.42,102.549 933.884,101.861 933.676,101.53C933.428,101.134 933.286,100.731 933.286,99.843C933.286,98.28 934.229,96.79 936.088,95.413C938.471,93.647 941.834,92.635 945.319,92.635C950.337,92.635 954.518,95.151 959.077,98.19C960.503,99.14 962.204,99.464 963.87,99.109C965.524,98.752 966.929,97.767 967.78,96.4C968.736,95.026 969.074,93.348 968.733,91.674C968.4,90.042 967.465,88.621 966.054,87.642L965.825,87.493C961.002,84.37 954.399,80.094 945.32,80.094C939.125,80.094 933.192,81.918 928.601,85.239C923.552,88.97 920.657,94.293 920.657,99.842C920.657,102.839 921.466,105.719 923,108.174C925.002,111.362 928.08,113.955 932.147,115.883L932.147,115.883ZM969.373,119.29C967.336,116.015 964.139,113.345 959.584,111.123C957.675,110.216 955.569,109.431 953.144,108.726C952.281,108.473 951.379,108.97 951.129,109.831C950.877,110.694 951.372,111.597 952.234,111.847C954.49,112.505 956.438,113.227 958.173,114.053C962.147,115.992 964.908,118.267 966.613,121.01C967.863,123.011 968.552,125.453 968.552,127.889C968.552,132.746 965.943,137.409 961.385,140.692C957.104,143.836 951.464,145.567 945.516,145.567C936.126,145.48 928.196,140.757 923.22,136.829C921.935,135.778 921.719,133.765 922.72,132.47C923.777,131.179 925.774,130.991 927.079,132.061C928.457,133.189 930.061,134.295 931.718,135.258C933.789,136.465 935.896,137.435 937.978,138.139C938.828,138.429 939.752,137.97 940.039,137.12C940.326,136.269 939.871,135.346 939.019,135.059C937.143,134.425 935.238,133.547 933.353,132.448C931.843,131.569 930.385,130.565 929.138,129.545C926.422,127.324 922.413,127.71 920.173,130.447C918.061,133.181 918.504,137.173 921.182,139.364C926.578,143.625 935.175,148.724 945.5,148.82C952.151,148.82 958.474,146.865 963.296,143.323C968.702,139.43 971.803,133.805 971.803,127.89C971.803,124.852 970.94,121.797 969.373,119.29L969.373,119.29Z" style="fill:rgb(139,203,255);fill-rule:nonzero;"/>
            </g>
            <g transform="matrix(1,0,0,1,-163.798,69.5102)">
                <path d="M1000.16,93.488C1005.07,93.488 1008.92,97.254 1008.92,102.06C1008.92,106.786 1004.99,110.633 1000.16,110.633C996.922,110.633 994.077,113.478 994.077,116.721C994.077,116.787 994.081,116.851 994.086,116.911C994.08,116.972 994.077,117.03 994.077,117.084C994.077,117.982 994.806,118.71 995.703,118.71C996.321,118.71 996.859,118.365 997.134,117.857C997.365,117.51 997.421,117.16 997.421,116.902C997.421,116.747 997.395,116.589 997.347,116.438C997.509,115.09 998.803,113.884 1000.17,113.884C1006.79,113.884 1012.17,108.58 1012.17,102.059C1012.17,95.429 1006.9,90.235 1000.17,90.235C995.973,90.235 992.085,92.466 990.019,96.05C989.621,96.733 988.993,97.218 988.253,97.415C987.514,97.609 986.732,97.5 986.078,97.12C984.706,96.285 984.281,94.611 985.09,93.224C988.193,87.882 993.969,84.563 1000.17,84.563C1002.52,84.563 1004.82,85.024 1006.98,85.935C1007.81,86.283 1008.76,85.893 1009.11,85.066C1009.46,84.238 1009.07,83.286 1008.24,82.937C1005.68,81.859 1002.96,81.312 1000.17,81.312C992.815,81.312 985.96,85.251 982.279,91.589C980.583,94.496 981.509,98.146 984.413,99.914C985.845,100.75 987.505,100.977 989.086,100.559C990.664,100.14 991.993,99.121 992.833,97.682C994.323,95.094 997.133,93.488 1000.16,93.488L1000.16,93.488ZM1000.16,140.181C996.864,140.181 994.077,142.969 994.077,146.268L994.077,147.908C994.077,151.264 996.807,153.995 1000.16,153.995C1001.83,153.995 1003.37,153.373 1004.5,152.244C1005.14,151.609 1005.14,150.58 1004.5,149.945C1003.87,149.31 1002.84,149.31 1002.2,149.945C1001.69,150.46 1000.96,150.743 1000.16,150.743C998.601,150.743 997.329,149.472 997.329,147.908L997.329,146.268C997.329,144.758 998.655,143.433 1000.16,143.433C1001.78,143.433 1003,144.652 1003,146.268C1003,147.166 1003.73,147.895 1004.63,147.895C1005.52,147.895 1006.25,147.166 1006.25,146.268C1006.25,142.855 1003.58,140.181 1000.16,140.181L1000.16,140.181ZM1013.91,86.481C1013.24,85.889 1012.21,85.956 1011.62,86.634C1011.02,87.31 1011.09,88.337 1011.77,88.928C1015.57,92.258 1017.75,97.045 1017.75,102.06C1017.75,110.185 1012.2,117.174 1004.25,119.054C1003.52,119.228 1003,119.883 1003,120.636L1003,129.806C1003,131.449 1001.81,132.642 1000.17,132.642C998.602,132.642 997.33,131.371 997.33,129.806L997.33,124.831C997.33,123.934 996.602,123.205 995.704,123.205C994.807,123.205 994.078,123.934 994.078,124.831L994.078,129.806C994.078,133.163 996.808,135.894 1000.17,135.894C1003.64,135.894 1006.25,133.276 1006.25,129.806L1006.25,121.882C1015,119.241 1021,111.265 1021,102.059C1021,96.107 1018.42,90.428 1013.91,86.481L1013.91,86.481Z" style="fill:rgb(139,203,255);fill-rule:nonzero;"/>
            </g>
        </g>
    </g>
</svg>
