<svg width="38" height="38" viewBox="0 0 38 38" fill="none" xmlns="http://www.w3.org/2000/svg">
<path fill-rule="evenodd" clip-rule="evenodd" d="M31.552 13.699L31.5668 13.7434C31.6112 13.8764 31.6381 14.0126 31.646 14.1519C31.6475 14.168 31.6519 14.183 31.6563 14.1978C31.6615 14.2151 31.6666 14.2321 31.6666 14.2501V31.6668C31.6666 33.4132 30.2463 34.8334 28.4999 34.8334H9.49992C7.7535 34.8334 6.33325 33.4132 6.33325 31.6668V6.33342C6.33325 4.587 7.7535 3.16675 9.49992 3.16675H20.5833C20.6012 3.16675 20.6182 3.17182 20.6355 3.17699C20.6503 3.18139 20.6654 3.18587 20.6814 3.18733C20.8223 3.19525 20.9585 3.22375 21.0915 3.26808C21.1073 3.2735 21.1231 3.27847 21.1387 3.2834C21.1734 3.2943 21.2076 3.30507 21.2403 3.32033C21.4082 3.39791 21.5681 3.4945 21.7043 3.63066L31.2043 13.1307C31.3404 13.2668 31.437 13.4268 31.5146 13.5946C31.5291 13.6292 31.5405 13.6638 31.552 13.699ZM20.5833 14.2501V6.33342L28.4999 14.2501H20.5833Z" fill="#F1F1F1"/>
</svg>
